<svg xmlns="http://www.w3.org/2000/svg" viewBox="0 0 800 600" role="img" aria-label="RFID seal illustration">
  <defs>
    <linearGradient id="tag" x1="0" y1="0" x2="1" y2="1">
      <stop offset="0%" stop-color="#1370b8"/>
      <stop offset="100%" stop-color="#0d4f86"/>
    </linearGradient>
  </defs>
  <rect width="800" height="600" rx="48" fill="#f7fafc"/>
  <circle cx="620" cy="130" r="120" fill="#f58220" opacity=".10"/>
  <circle cx="170" cy="470" r="130" fill="#1370b8" opacity=".10"/>
  <path d="M270 160h180l120 120-180 180H270c-26 0-48-22-48-48V208c0-26 22-48 48-48z" fill="url(#tag)"/>
  <circle cx="332" cy="236" r="24" fill="#f7fafc"/>
  <path d="M376 270c58 0 105 47 105 105" fill="none" stroke="#8fd0ff" stroke-width="14" stroke-linecap="round"/>
  <path d="M388 316c34 0 61 27 61 61" fill="none" stroke="#f58220" stroke-width="14" stroke-linecap="round"/>
  <path d="M284 388h132" stroke="#f7fafc" stroke-width="16" stroke-linecap="round"/>
  <path d="M510 194l58-58" stroke="#f58220" stroke-width="14" stroke-linecap="round"/>
  <circle cx="570" cy="136" r="22" fill="#f58220"/>
</svg>
